<?xml version="1.0" encoding="utf-8"?>
<!-- Generator: Adobe Illustrator 18.0.0, SVG Export Plug-In . SVG Version: 6.00 Build 0)  -->
<!DOCTYPE svg PUBLIC "-//W3C//DTD SVG 1.1//EN" "http://www.w3.org/Graphics/SVG/1.1/DTD/svg11.dtd">
<svg version="1.1" id="圖層_1" xmlns="http://www.w3.org/2000/svg" xmlns:xlink="http://www.w3.org/1999/xlink" x="0px" y="0px"
	 viewBox="0 0 256 256" enable-background="new 0 0 256 256" xml:space="preserve">
<path d="M128,0C57.3,0,0,57.3,0,128s57.3,128,128,128s128-57.3,128-128S198.7,0,128,0z M91.1,199.7H57V97.5h34.1V199.7z M74,82.3
	c-10.3,0-18.7-8.5-18.7-18.9c0-10.4,8.4-18.9,18.7-18.9s18.7,8.5,18.7,18.9C92.8,73.8,84.4,82.3,74,82.3z M210.3,199.7h-34v-48.8
	c0-32.1-34.1-29.3-34.1,0v48.8h-34.1V97.5h34.1v18.6c14.9-27.5,68.2-29.6,68.2,26.4V199.7z"/>
</svg>
